<svg xmlns="http://www.w3.org/2000/svg" xmlns:xlink="http://www.w3.org/1999/xlink" viewBox="0 0 196.99 196.99"><defs><style>.a{fill:url(#a);}.b{fill:#3c3c3b;}.c{fill:#afca0b;}.d{fill:#fff;}</style><radialGradient id="a" cx="98.5" cy="98.5" r="98.5" gradientUnits="userSpaceOnUse"><stop offset="0" stop-color="#afca0b"/><stop offset="1" stop-color="#90ae00"/></radialGradient></defs><rect class="a" width="196.99" height="196.99"/><path class="b" d="M158.87,71.54v89A12.86,12.86,0,0,1,146,173.4H68.84A12.86,12.86,0,0,1,56,160.54V49.07A12.86,12.86,0,0,1,68.84,36.2h45.85c2.94,0,.32,26.77,2.4,28.85l38-2.6A14.75,14.75,0,0,1,158.87,71.54Z"/><path class="c" d="M146.93,156.7V69.88h-29.7A6.86,6.86,0,0,1,110.37,63V33.32H60.11a4.58,4.58,0,0,0-4.58,4.57V156.7a4.57,4.57,0,0,0,4.58,4.57h82.25A4.57,4.57,0,0,0,146.93,156.7Z"/><path class="d" d="M156.07,61.85V156.7a13.71,13.71,0,0,1-13.71,13.71H60.1A13.71,13.71,0,0,1,46.39,156.7V37.89A13.71,13.71,0,0,1,60.1,24.18h58.3a15.72,15.72,0,0,1,9.69,4l24,24A15.72,15.72,0,0,1,156.07,61.85Zm-9.15,94.85V69.88h-29.7A6.85,6.85,0,0,1,110.37,63V33.32H60.1a4.58,4.58,0,0,0-4.57,4.57V156.7a4.57,4.57,0,0,0,4.57,4.57h82.26A4.56,4.56,0,0,0,146.92,156.7Zm-25.29-122a5.39,5.39,0,0,0-2.12-1.2V60.74h27.27a5.25,5.25,0,0,0-1.19-2.12Z"/><path class="d" d="M111.19,142a8.43,8.43,0,0,1-3.94-1,9.15,9.15,0,0,1-1.9-1.35,7.85,7.85,0,0,1-2.48-5.72,7,7,0,0,1,2.17-5l4.3-4.1.19-.19a4.42,4.42,0,0,0-.18-6.23L105,114.29a6.91,6.91,0,0,1-2.16-5,7.89,7.89,0,0,1,4.38-7.07,8.6,8.6,0,0,1,3.91-1h.06a8.25,8.25,0,0,1,4.35,1.29l20.18,12.3a8.53,8.53,0,0,1,1.41,1.09,7.82,7.82,0,0,1,2.44,5.7,8,8,0,0,1-3.89,6.78l-20,12.29A8.53,8.53,0,0,1,111.19,142Zm0-34.39a2.36,2.36,0,0,0-1,.26l-.1.06a1.59,1.59,0,0,0-.9,1.43.53.53,0,0,0,.18.39l4.33,4.12a10.74,10.74,0,0,1,.41,15.15l-.41.42-4.31,4.11a.62.62,0,0,0-.2.45,1.49,1.49,0,0,0,.47,1.07,2.57,2.57,0,0,0,.56.4,2.24,2.24,0,0,0,2.14-.1L132.45,123a1.66,1.66,0,0,0,.84-1.41,1.54,1.54,0,0,0-.48-1.09,2,2,0,0,0-.38-.3l-20.2-12.31A1.9,1.9,0,0,0,111.2,107.56Z"/><path class="b" d="M91.57,128.77h0a8.17,8.17,0,0,1-4.35-1.29L67,115.19a8.58,8.58,0,0,1-1.41-1.1,7.8,7.8,0,0,1-2.44-5.7,7.94,7.94,0,0,1,3.89-6.78l20-12.29a8.59,8.59,0,0,1,8.42-.3,9.19,9.19,0,0,1,1.89,1.35,7.81,7.81,0,0,1,2.48,5.72,7,7,0,0,1-2.16,5l-4.3,4.11-.19.18a4.41,4.41,0,0,0,.18,6.23l4.32,4.11a6.88,6.88,0,0,1,2.15,5,7.87,7.87,0,0,1-4.37,7.06,8.47,8.47,0,0,1-3.91,1Zm0-34.41a2.24,2.24,0,0,0-1.19.34L70.31,107a1.65,1.65,0,0,0-.84,1.4,1.51,1.51,0,0,0,.48,1.09,2,2,0,0,0,.38.3l20.2,12.31a1.89,1.89,0,0,0,1,.34,2.24,2.24,0,0,0,1-.27l.1,0a1.62,1.62,0,0,0,.9-1.44.54.54,0,0,0-.18-.39l-4.33-4.12A10.74,10.74,0,0,1,88.65,101q.19-.21.42-.42l4.3-4.11a.6.6,0,0,0,.2-.44A1.49,1.49,0,0,0,93.1,95a2.84,2.84,0,0,0-.56-.4A2.09,2.09,0,0,0,91.58,94.36Z"/><path class="d" d="M63.23,56.71V53.63H65.1a1.65,1.65,0,0,0,1.15-.36,1.46,1.46,0,0,0,.38-1.11V40.37h3.85V52.68A4.48,4.48,0,0,1,69.42,56,4.66,4.66,0,0,1,66,57,8.94,8.94,0,0,1,63.23,56.71Z"/><path class="d" d="M72.39,40.48h3.93l3.49,12.35,3.47-12.35h3.93L82.24,57H77.42Z"/><path class="d" d="M89.28,40.48h3.85V47h5.46V40.48h3.93V57H98.59V50.51h-5.5V57H89.28Z"/></svg>